<?xml version="1.0" encoding="UTF-8"?>
<svg id="_레이어_2" data-name="레이어_2" xmlns="http://www.w3.org/2000/svg" viewBox="0 0 252.5 144.66">
  <defs>
    <style>
      .cls-1 {
        stroke-width: .2px;
      }

      .cls-1, .cls-2, .cls-3, .cls-4, .cls-5 {
        fill: none;
        stroke-miterlimit: 10;
      }

      .cls-1, .cls-4 {
        stroke: #eef6fc;
      }

      .cls-2 {
        stroke-dasharray: .81 .81;
      }

      .cls-2, .cls-3, .cls-5 {
        stroke: #d0d7dc;
        stroke-width: .3px;
      }

      .cls-3 {
        stroke-dasharray: .8;
      }

      .cls-4 {
        stroke-width: .26px;
      }

      .cls-6 {
        fill: #eef6fc;
      }
    </style>
  </defs>
  <g id="_레이어_1-2" data-name="레이어_1">
    <g>
      <g>
        <path class="cls-6" d="M106.75,9.93h-.52v-4.15h.52v4.15ZM106.52,9.93v-.46h.97c.34,0,.62-.06.84-.19s.39-.32.5-.56.17-.53.17-.87-.05-.62-.16-.86-.27-.42-.49-.55c-.22-.13-.48-.19-.8-.19h-1.04v-.46h1.08c.4,0,.75.08,1.03.25s.51.4.66.71c.15.31.23.68.23,1.11s-.08.8-.23,1.11c-.15.31-.38.55-.68.72-.3.17-.65.25-1.07.25h-1Z"/>
        <path class="cls-6" d="M110.73,9.8c-.22-.13-.39-.32-.51-.56s-.18-.52-.18-.84.06-.6.18-.85c.12-.25.28-.44.5-.57.21-.14.46-.2.74-.2.24,0,.46.05.66.15s.37.27.49.5.19.53.19.89v.21h-2.41v-.42h1.91c0-.18-.03-.33-.1-.47-.07-.14-.17-.24-.3-.32-.13-.08-.28-.12-.44-.12-.18,0-.34.05-.48.13-.14.09-.24.21-.32.36-.08.15-.11.31-.11.48v.28c0,.23.04.42.12.59.08.16.19.28.34.37s.31.13.5.13c.12,0,.23-.02.32-.05.1-.03.18-.08.24-.13.07-.05.12-.11.16-.18h.53c-.05.16-.13.29-.25.41s-.26.21-.43.28c-.17.07-.36.1-.57.1-.29,0-.55-.07-.77-.2Z"/>
        <path class="cls-6" d="M114.96,7.31c-.11-.08-.25-.11-.42-.11-.13,0-.24.02-.34.06-.1.04-.18.1-.23.17s-.09.15-.09.24c0,.1.04.19.13.26s.22.13.4.17l.46.11c.28.06.49.17.62.31.14.14.21.32.21.54,0,.18-.05.34-.14.48s-.23.25-.42.33-.4.12-.66.12c-.23,0-.43-.03-.6-.1-.17-.07-.3-.17-.4-.3-.1-.13-.17-.29-.19-.48h.52c.03.15.1.26.21.34.11.07.26.11.46.11.15,0,.27-.02.38-.06s.19-.09.25-.17.09-.16.09-.25c0-.11-.04-.2-.12-.28-.08-.08-.21-.13-.39-.17l-.47-.11c-.27-.06-.48-.17-.62-.31-.14-.14-.21-.32-.21-.52,0-.18.05-.33.15-.47.1-.14.23-.25.41-.33.17-.08.37-.12.6-.12.21,0,.4.04.56.11.16.07.29.17.38.3.1.13.15.28.17.44h-.48c-.03-.14-.1-.24-.21-.32Z"/>
        <path class="cls-6" d="M116.42,6.27c-.05-.03-.1-.07-.13-.12-.03-.05-.05-.11-.05-.16,0-.06.02-.12.05-.17s.07-.09.13-.12c.05-.03.11-.04.17-.04.07,0,.12.01.18.04.05.03.1.07.13.12s.05.1.05.17c0,.06-.02.11-.05.16-.03.05-.07.09-.13.12-.05.03-.11.04-.18.04-.06,0-.12-.01-.17-.04ZM116.34,6.82h.49v3.11h-.49v-3.11Z"/>
        <path class="cls-6" d="M118.22,11.06c-.19-.07-.35-.17-.46-.31-.11-.14-.18-.3-.2-.49h.52c.03.16.12.27.26.36s.32.12.54.12c.27,0,.49-.06.64-.18s.22-.31.22-.56v-.63h-.04c-.05.09-.11.17-.17.24-.06.07-.15.14-.27.19-.12.06-.27.09-.46.09-.25,0-.48-.06-.68-.19-.2-.12-.36-.3-.47-.54-.11-.23-.17-.51-.17-.83s.06-.59.17-.82c.11-.23.27-.41.47-.54s.43-.19.69-.19c.18,0,.34.03.46.09.12.06.21.12.26.18s.12.15.19.26h.04v-.49h.48v3.2c0,.26-.06.47-.17.64s-.28.3-.48.38c-.2.08-.44.12-.7.12-.25,0-.47-.04-.66-.11ZM119.35,9.32c.13-.09.23-.21.3-.37.07-.16.1-.36.1-.59s-.03-.42-.1-.59c-.07-.17-.17-.3-.3-.4-.13-.09-.29-.14-.48-.14s-.35.05-.49.15-.23.23-.3.4c-.07.17-.1.36-.1.58s.03.41.1.57.17.29.3.38.3.14.49.14.35-.04.48-.13Z"/>
        <path class="cls-6" d="M121.51,9.93h-.49v-3.11h.48v.49h.04c.08-.17.19-.3.34-.39s.34-.14.57-.14c.21,0,.4.04.56.13.16.09.28.22.36.39s.13.39.13.65v1.98h-.49v-1.94c0-.16-.03-.3-.08-.41s-.14-.2-.24-.26-.23-.09-.38-.09-.29.03-.41.1-.21.16-.28.29c-.07.13-.1.28-.1.45v1.87Z"/>
        <path class="cls-6" d="M127.94,6.48c-.08-.1-.19-.17-.32-.22s-.28-.07-.45-.07c-.18,0-.34.03-.48.09s-.24.14-.32.24-.11.22-.11.36c0,.19.08.34.23.44.16.1.35.18.57.24l.41.11c.32.08.6.21.83.38s.35.43.35.77c0,.23-.06.43-.18.61s-.29.33-.52.43c-.23.11-.5.16-.81.16-.29,0-.55-.05-.77-.14s-.39-.23-.52-.4c-.12-.17-.19-.37-.21-.6h.53c.02.15.07.27.16.37.09.1.21.18.35.23.14.05.3.08.46.08.19,0,.36-.03.52-.09s.27-.15.36-.26.13-.24.13-.39c0-.13-.04-.23-.11-.32-.07-.09-.16-.16-.28-.21s-.26-.1-.43-.15l-.51-.14c-.34-.1-.6-.24-.78-.41s-.27-.4-.27-.67c0-.23.06-.43.19-.61s.3-.31.51-.41c.22-.1.46-.15.72-.15s.5.05.71.14.38.23.5.39c.12.17.19.35.19.56h-.5c-.02-.13-.06-.25-.14-.35Z"/>
        <path class="cls-6" d="M129.36,11.09v-.44h.09s.08.01.15.01c.08,0,.15,0,.21-.03.06-.02.11-.06.17-.13s.11-.17.16-.32l.09-.23-1.15-3.13h.54l.85,2.47h.03l.85-2.47h.54l-1.32,3.56c-.09.24-.21.42-.37.54-.15.12-.34.18-.56.18-.1,0-.19,0-.27-.01Z"/>
        <path class="cls-6" d="M133.94,7.31c-.11-.08-.25-.11-.42-.11-.13,0-.24.02-.34.06-.1.04-.18.1-.23.17s-.09.15-.09.24c0,.1.04.19.13.26s.22.13.4.17l.46.11c.28.06.49.17.62.31.14.14.21.32.21.54,0,.18-.05.34-.14.48s-.23.25-.42.33-.4.12-.66.12c-.23,0-.43-.03-.6-.1-.17-.07-.3-.17-.4-.3-.1-.13-.17-.29-.19-.48h.52c.03.15.1.26.21.34.11.07.26.11.46.11.15,0,.27-.02.38-.06s.19-.09.25-.17.09-.16.09-.25c0-.11-.04-.2-.12-.28-.08-.08-.21-.13-.39-.17l-.47-.11c-.27-.06-.48-.17-.62-.31-.14-.14-.21-.32-.21-.52,0-.18.05-.33.15-.47.1-.14.23-.25.41-.33.17-.08.37-.12.6-.12.21,0,.4.04.56.11.16.07.29.17.38.3.1.13.15.28.17.44h-.48c-.03-.14-.1-.24-.21-.32Z"/>
        <path class="cls-6" d="M136.69,7.24h-1.62v-.41h1.62v.41ZM136.04,6.08v2.96c0,.13.02.22.05.29.04.07.08.11.14.14.06.02.13.04.21.04.1,0,.19,0,.29-.01v.46c-.1.02-.21.02-.34.02-.15,0-.28-.03-.41-.09s-.24-.15-.32-.27-.12-.27-.12-.44v-3.09h.5Z"/>
        <path class="cls-6" d="M137.83,9.8c-.22-.13-.39-.32-.51-.56s-.18-.52-.18-.84.06-.6.18-.85c.12-.25.28-.44.5-.57.21-.14.46-.2.74-.2.24,0,.46.05.66.15s.37.27.49.5.19.53.19.89v.21h-2.41v-.42h1.91c0-.18-.03-.33-.1-.47-.07-.14-.17-.24-.3-.32-.13-.08-.28-.12-.44-.12-.18,0-.34.05-.48.13-.14.09-.24.21-.32.36-.08.15-.11.31-.11.48v.28c0,.23.04.42.12.59.08.16.19.28.34.37s.31.13.5.13c.12,0,.23-.02.32-.05.1-.03.18-.08.24-.13.07-.05.12-.11.16-.18h.53c-.05.16-.13.29-.25.41s-.26.21-.43.28c-.17.07-.36.1-.57.1-.29,0-.55-.07-.77-.2Z"/>
        <path class="cls-6" d="M140.54,6.82h.48v.49h.04c.07-.17.17-.3.32-.39s.32-.14.52-.14c.13,0,.25.02.36.06.11.04.2.1.28.18.08.08.14.18.19.29h.03c.05-.11.13-.21.21-.28.09-.08.2-.14.32-.18s.26-.06.4-.06c.19,0,.36.04.5.12.14.08.25.2.33.36.08.16.12.36.12.6v2.08h-.49v-2.07c0-.22-.06-.38-.18-.48s-.27-.15-.45-.15c-.14,0-.26.03-.37.09-.1.06-.18.14-.23.24s-.08.22-.08.36v2.02h-.5v-2.13c0-.11-.03-.22-.08-.31-.05-.09-.12-.16-.21-.21-.09-.05-.2-.07-.32-.07s-.24.03-.34.1-.19.16-.26.27c-.07.12-.1.25-.1.4v1.94h-.49v-3.11Z"/>
      </g>
      <g>
        <g>
          <path class="cls-6" d="M120.73,112.87c-.08-.12-.19-.2-.32-.26s-.28-.09-.44-.09c-.22,0-.41.06-.58.17s-.29.27-.39.48-.14.46-.14.75.05.55.14.76c.09.21.22.37.39.47.17.11.35.16.57.16.16,0,.31-.03.44-.09s.24-.14.32-.25c.09-.11.14-.24.17-.39h.89c-.03.27-.13.52-.29.75s-.37.41-.63.55c-.27.14-.57.21-.92.21-.38,0-.72-.09-1.02-.26-.3-.17-.53-.42-.7-.75s-.25-.72-.25-1.17.09-.84.26-1.17.41-.58.7-.75.64-.26,1.01-.26c.33,0,.62.06.88.18s.48.3.64.53c.17.23.27.51.31.83h-.89c-.02-.16-.07-.29-.16-.41Z"/>
          <path class="cls-6" d="M122.97,115.89c-.24-.14-.42-.33-.54-.58s-.19-.53-.19-.86.06-.62.19-.86.31-.44.54-.58.51-.21.83-.21.59.07.83.21.42.33.54.58.19.53.19.86-.06.61-.19.86-.31.44-.54.58-.51.21-.83.21-.59-.07-.83-.21ZM124.18,115.3c.1-.08.18-.2.23-.35s.08-.32.08-.5-.03-.36-.08-.5-.13-.26-.23-.35-.22-.13-.37-.13-.27.04-.38.13-.18.2-.23.34-.08.31-.08.5.03.36.08.5.13.26.23.35.23.13.38.13.27-.04.37-.13Z"/>
          <path class="cls-6" d="M126.78,116.04h-.87v-4.24h.87v4.24Z"/>
          <path class="cls-6" d="M128.05,115.89c-.24-.14-.42-.33-.54-.58s-.19-.53-.19-.86.06-.62.19-.86.31-.44.54-.58.51-.21.83-.21.59.07.83.21.42.33.54.58.19.53.19.86-.06.61-.19.86-.31.44-.54.58-.51.21-.83.21-.59-.07-.83-.21ZM129.26,115.3c.1-.08.18-.2.23-.35s.08-.32.08-.5-.03-.36-.08-.5-.13-.26-.23-.35-.22-.13-.37-.13-.27.04-.38.13-.18.2-.23.34-.08.31-.08.5.03.36.08.5.13.26.23.35.23.13.38.13.27-.04.37-.13Z"/>
          <path class="cls-6" d="M130.99,112.86h.84v.55h.04c.06-.2.15-.34.29-.45.14-.1.29-.15.47-.15.09,0,.19,0,.28.03v.77s-.09-.03-.17-.03c-.07,0-.14-.01-.21-.01-.13,0-.24.03-.35.08-.1.05-.18.13-.24.23s-.09.22-.09.35v1.81h-.87v-3.18Z"/>
        </g>
        <g>
          <path class="cls-6" d="M119.65,125.43h-1.34v-2.15h1.34v2.15ZM118.6,125.19h.76v-1.66h-.76v1.66ZM120.31,124.45h-.82v-.26h.82v.26ZM120.48,126.2h-.3v-3.25h.3v3.25ZM121.18,126.38h-.3v-3.51h.3v3.51Z"/>
          <path class="cls-6" d="M123.14,123.23c.14.07.25.17.33.31s.12.28.12.45-.04.32-.12.45-.19.23-.33.31-.3.11-.47.11-.33-.04-.47-.11-.25-.18-.33-.31-.12-.28-.12-.45.04-.31.12-.45.19-.23.33-.31.3-.11.47-.11.33.04.47.11ZM122.35,123.47c-.09.05-.17.12-.22.21s-.08.19-.08.3.03.21.08.31.13.16.22.21.2.07.32.07.22-.02.31-.07.17-.12.22-.21.08-.19.08-.31-.03-.21-.08-.3-.13-.16-.22-.21-.2-.07-.31-.07-.22.02-.32.07ZM122.61,126.13h-.31v-.95h.31v.95ZM124.67,126.3h-2.37v-.26h2.37v.26ZM124.56,125.44h-.31v-2.56h.31v2.56Z"/>
          <path class="cls-6" d="M126.31,123.95l-.05-.25,1.42-.06v.21l-1.36.1ZM127.81,123.83c-.12.23-.29.42-.53.59s-.53.29-.9.39l-.11-.24c.32-.08.58-.19.79-.32s.36-.29.45-.47.15-.37.15-.59v-.13h.32c0,.29-.06.56-.17.78ZM127.86,123.29h-1.43v-.25h1.43v.25ZM129.08,125.69h-1.96v.54h-.3v-.77h1.96v-.36h-1.96v-.25h2.27v.84ZM129.2,126.33h-2.38v-.25h2.38v.25ZM128.83,123.97h-.83v-.26h.83v.26ZM129.08,124.69h-.31v-1.82h.31v1.82Z"/>
          <path class="cls-6" d="M131.36,124.42h-1.26v.93h-.31v-1.19h1.27v-.71h-1.28v-.26h1.58v1.23ZM130.94,125.25c.24-.02.48-.05.72-.09l.02.26c-.25.04-.49.07-.73.09s-.54.02-.88.03h-.27v-.26h.27c.34,0,.64,0,.87-.02ZM132.34,124.48h-.76v-.26h.76v.26ZM132.57,126.38h-.31v-3.51h.31v3.51Z"/>
        </g>
      </g>
      <g>
        <g>
          <path class="cls-6" d="M210.2,112.18h.88v3.52h1.83v.73h-2.7v-4.24Z"/>
          <path class="cls-6" d="M214.06,116.28c-.24-.14-.42-.33-.54-.58s-.19-.53-.19-.86.06-.62.19-.86.31-.44.54-.58.51-.21.83-.21.59.07.83.21.42.33.54.58.19.53.19.86-.06.61-.19.86-.31.44-.54.58-.51.21-.83.21-.59-.07-.83-.21ZM215.26,115.69c.1-.08.18-.2.23-.35s.08-.32.08-.5-.03-.36-.08-.5-.13-.26-.23-.35-.22-.13-.37-.13-.27.04-.38.13-.18.2-.23.34-.08.31-.08.5.03.36.08.5.13.26.23.35.23.13.38.13.27-.04.37-.13Z"/>
          <path class="cls-6" d="M217.67,117.56c-.22-.08-.38-.2-.51-.35s-.19-.33-.21-.53h.85c.03.12.1.22.21.28s.25.09.43.09c.21,0,.38-.05.5-.15.12-.1.18-.25.18-.46v-.59h-.04c-.05.1-.11.19-.18.26-.08.08-.17.14-.3.19s-.27.07-.43.07c-.24,0-.46-.06-.66-.18s-.35-.29-.46-.53-.17-.52-.17-.86.06-.64.17-.88.27-.42.46-.54.41-.18.66-.18c.17,0,.31.03.43.08.12.05.22.12.28.2s.13.17.19.29h.04v-.53h.86v3.22c0,.26-.07.48-.2.67-.13.18-.31.32-.54.42-.23.09-.5.14-.81.14-.29,0-.54-.04-.75-.12ZM218.81,115.62c.1-.07.18-.18.23-.31s.08-.3.08-.48-.03-.35-.08-.49-.13-.25-.23-.32-.22-.11-.37-.11-.27.04-.37.12-.18.19-.23.32c-.05.14-.08.3-.08.49s.03.34.08.48.13.24.23.31.22.11.37.11.26-.04.37-.11Z"/>
          <path class="cls-6" d="M221.25,116.28c-.24-.14-.42-.33-.54-.58s-.19-.53-.19-.86.06-.62.19-.86.31-.44.54-.58.51-.21.83-.21.59.07.83.21.42.33.54.58.19.53.19.86-.06.61-.19.86-.31.44-.54.58-.51.21-.83.21-.59-.07-.83-.21ZM222.45,115.69c.1-.08.18-.2.23-.35s.08-.32.08-.5-.03-.36-.08-.5-.13-.26-.23-.35-.22-.13-.37-.13-.27.04-.38.13-.18.2-.23.34-.08.31-.08.5.03.36.08.5.13.26.23.35.23.13.38.13.27-.04.37-.13Z"/>
          <path class="cls-6" d="M225.42,112.18h3.47v.73h-1.3v3.52h-.87v-3.52h-1.3v-.73Z"/>
          <path class="cls-6" d="M229.14,117.61v-.68h.15c.06.01.13.01.21.01.07,0,.13,0,.18-.02s.09-.04.13-.08.08-.11.11-.19l.05-.13-1.15-3.27h.91l.67,2.34h.04l.67-2.34h.92l-1.24,3.53c-.1.27-.24.48-.43.63-.19.15-.45.22-.77.22-.17,0-.32,0-.44-.01Z"/>
          <path class="cls-6" d="M232.45,113.24h.85v.53h.04c.05-.11.11-.2.19-.28s.17-.15.29-.21c.12-.06.26-.08.43-.08.24,0,.46.06.65.18s.35.31.46.55.17.54.17.9-.06.64-.17.89-.26.43-.46.56-.42.19-.67.19c-.16,0-.3-.03-.42-.08s-.22-.12-.29-.2-.14-.17-.19-.28h-.03v1.7h-.87v-4.38ZM233.37,115.33c.05.14.13.26.23.33s.22.12.37.12.26-.04.37-.12.18-.19.23-.34c.05-.14.08-.31.08-.5s-.03-.35-.08-.49-.13-.25-.23-.33-.22-.12-.37-.12-.27.04-.37.11c-.1.08-.18.18-.23.32s-.08.31-.08.5.03.36.08.5Z"/>
          <path class="cls-6" d="M236.7,116.29c-.24-.13-.42-.32-.55-.57s-.19-.54-.19-.87.06-.62.19-.87c.13-.25.31-.44.54-.58s.5-.21.81-.21c.29,0,.54.06.77.18.22.12.4.3.53.54s.19.54.19.89v.24h-2.68v-.54h1.86c0-.13-.03-.24-.08-.34s-.13-.18-.23-.24-.21-.08-.34-.08c-.13,0-.25.03-.36.09-.11.06-.19.15-.25.25s-.09.22-.09.35v.51c0,.16.03.3.09.42s.15.21.26.27.24.09.39.09c.1,0,.19-.01.27-.04.08-.03.15-.06.2-.11.06-.04.1-.1.13-.16h.83c-.04.19-.13.36-.25.51-.13.15-.29.26-.5.34-.2.08-.43.12-.69.12-.32,0-.6-.07-.84-.2Z"/>
        </g>
        <g>
          <path class="cls-6" d="M221.13,126.96h-3.21v-.26h3.21v.26ZM220.72,125.21h-2.09v.71h-.31v-.96h2.1v-.55h-2.11v-.26h2.41v1.06ZM220.8,126.04h-2.48v-.26h2.48v.26ZM219.66,126.82h-.3v-.87h.3v.87Z"/>
          <path class="cls-6" d="M224.6,126.9h-3.19v-.26h3.19v.26ZM224.02,124.5h-2.28v-.26h2.28v.26ZM222.96,126.78h-.3v-1.39h.3v1.39ZM224.21,125.11c0,.14-.02.3-.04.49s-.05.39-.09.61l-.32-.04c.04-.21.07-.4.09-.59s.03-.35.04-.49,0-.31,0-.5v-.35h.31v.35c0,.21,0,.38,0,.52Z"/>
          <path class="cls-6" d="M226.69,124.47h-1.33v1.91h-.31v-2.17h1.64v.26ZM226.21,126.27c.25-.02.5-.05.76-.09l.04.26c-.26.04-.51.07-.76.09s-.55.02-.91.03h-.28v-.26h.28c.34,0,.64,0,.88-.03ZM226.62,125.45h-1.33v-.25h1.33v.25ZM227.61,127.4h-.31v-3.51h.31v3.51ZM228.2,125.57h-.66v-.26h.66v.26Z"/>
          <path class="cls-6" d="M229.86,124.16c.14.07.25.16.33.29s.12.26.12.42-.04.29-.12.42-.19.22-.33.29-.3.1-.47.1-.33-.03-.47-.1-.25-.16-.33-.29-.12-.26-.12-.42.04-.3.12-.42.19-.22.33-.29.3-.1.47-.1c.18,0,.33.03.47.1ZM229.07,124.39c-.09.05-.17.11-.22.2s-.08.18-.08.28.03.2.08.28.13.15.22.2.2.07.32.07.22-.02.32-.07.17-.11.22-.2.08-.18.08-.28-.03-.2-.08-.28-.13-.15-.22-.2-.2-.07-.32-.07c-.12,0-.22.02-.32.07ZM229.32,126.37h1.66v-.43h.31v1.4h-2.27v-1.4h.31v.43ZM230.97,127.1v-.47h-1.66v.47h1.66ZM231.28,125.77h-.31v-1.88h.31v1.88Z"/>
        </g>
      </g>
      <g>
        <g>
          <path class="cls-6" d="M11.08,115.87h-.88v-4.24h.88v4.24ZM10.6,115.87v-.76h1.06c.27,0,.5-.05.68-.15s.32-.25.41-.45c.09-.2.14-.46.14-.77s-.05-.57-.14-.77c-.09-.2-.23-.35-.41-.45s-.41-.14-.68-.14h-1.09v-.76h1.13c.43,0,.79.08,1.1.25s.55.41.71.73.25.7.25,1.13-.08.82-.25,1.14-.4.56-.72.73-.68.25-1.11.25h-1.1Z"/>
          <path class="cls-6" d="M15,115.73c-.24-.13-.42-.32-.55-.57s-.19-.54-.19-.87.06-.62.19-.87c.13-.25.31-.44.54-.58s.5-.21.81-.21c.29,0,.54.06.77.18.22.12.4.3.53.54s.19.54.19.89v.24h-2.68v-.54h1.86c0-.13-.03-.24-.08-.34s-.13-.18-.23-.24-.21-.08-.34-.08c-.13,0-.25.03-.36.09-.11.06-.19.15-.25.25s-.09.22-.09.35v.51c0,.16.03.3.09.42s.15.21.26.27.24.09.39.09c.1,0,.19-.01.27-.04.08-.03.15-.06.2-.11.06-.04.1-.1.13-.16h.83c-.04.19-.13.36-.25.51-.13.15-.29.26-.5.34-.2.08-.43.12-.69.12-.32,0-.6-.07-.84-.2Z"/>
          <path class="cls-6" d="M19.49,113.36c-.09-.06-.21-.1-.35-.1-.09,0-.18.01-.25.04-.07.03-.13.06-.18.11-.04.05-.07.11-.07.17,0,.07.03.14.1.19s.17.1.31.13l.57.12c.31.06.54.17.69.31s.23.33.23.55c0,.21-.06.39-.18.55s-.28.28-.5.37-.46.13-.74.13-.53-.04-.73-.12c-.21-.08-.37-.2-.49-.35-.12-.15-.19-.33-.21-.53h.87c.03.12.09.21.18.28.1.06.23.1.39.1.1,0,.19-.01.27-.04s.14-.06.18-.11c.04-.05.07-.11.07-.17,0-.09-.03-.16-.1-.21s-.18-.09-.33-.12l-.53-.11c-.3-.06-.53-.17-.69-.32s-.23-.35-.23-.58c0-.2.05-.38.16-.53.11-.15.27-.26.47-.34s.44-.12.71-.12.5.04.69.12.35.19.46.34.17.32.19.52h-.81c-.02-.12-.08-.21-.17-.27Z"/>
          <path class="cls-6" d="M21.27,112.21c-.07-.04-.13-.09-.17-.16s-.06-.14-.06-.22.02-.15.06-.22c.04-.07.1-.12.17-.16s.15-.06.24-.06.17.02.24.06.13.09.17.16c.04.07.06.14.06.22s-.02.15-.06.22-.1.12-.17.16-.15.06-.24.06-.17-.02-.24-.06ZM21.07,112.69h.87v3.18h-.87v-3.18Z"/>
          <path class="cls-6" d="M23.29,117.01c-.22-.08-.38-.2-.51-.35s-.19-.33-.21-.53h.85c.03.12.1.22.21.28s.25.09.43.09c.21,0,.38-.05.5-.15.12-.1.18-.25.18-.46v-.59h-.04c-.05.1-.11.19-.18.26-.08.08-.17.14-.3.19s-.27.07-.43.07c-.24,0-.46-.06-.66-.18s-.35-.29-.46-.53-.17-.52-.17-.86.06-.64.17-.88.27-.42.46-.54.41-.18.65-.18c.17,0,.31.03.43.08.12.05.22.12.28.2s.13.17.19.29h.04v-.53h.86v3.22c0,.26-.07.48-.2.67-.13.18-.31.32-.54.42-.23.09-.5.14-.81.14-.29,0-.54-.04-.75-.12ZM24.42,115.06c.1-.07.18-.18.23-.31s.08-.3.08-.48-.03-.35-.08-.49-.13-.25-.23-.32-.22-.11-.37-.11-.27.04-.37.12-.18.19-.23.32c-.05.14-.08.3-.08.49s.03.34.08.48.13.24.23.31.22.11.37.11.27-.04.37-.11Z"/>
          <path class="cls-6" d="M27.13,115.87h-.87v-3.18h.83v.56h.04c.07-.19.19-.33.36-.44s.36-.16.6-.16c.22,0,.41.05.58.14s.29.23.38.41.14.39.14.64v2.03h-.87v-1.88c0-.13-.02-.24-.07-.33s-.11-.16-.19-.21c-.09-.05-.19-.07-.31-.07s-.23.03-.32.08-.16.13-.21.22c-.05.1-.08.22-.08.36v1.84Z"/>
          <path class="cls-6" d="M32.34,111.63l1.18,2.87h.05l1.18-2.87h1.09v4.24h-.86v-2.78h-.04l-1.11,2.76h-.59l-1.1-2.77h-.04v2.79h-.85v-4.24h1.08Z"/>
          <path class="cls-6" d="M37.14,115.73c-.24-.14-.42-.33-.54-.58s-.19-.53-.19-.86.06-.62.19-.86.31-.44.54-.58.51-.21.83-.21.59.07.83.21.42.33.54.58.19.53.19.86-.06.61-.19.86-.31.44-.54.58-.51.21-.83.21-.59-.07-.83-.21ZM38.34,115.14c.1-.08.18-.2.23-.35s.08-.32.08-.5-.03-.36-.08-.5-.13-.26-.23-.35-.22-.13-.37-.13-.27.04-.38.13-.18.2-.23.34-.08.31-.08.5.03.36.08.5.13.26.23.35.23.13.38.13.27-.04.37-.13Z"/>
          <path class="cls-6" d="M41.75,113.34h-1.9v-.65h1.9v.65ZM41.15,111.93v2.96c0,.08.01.15.04.19.02.05.06.08.1.1s.1.03.16.03c.08,0,.2,0,.34-.01v.69c-.13.02-.28.03-.45.03-.21,0-.4-.03-.56-.1-.16-.06-.28-.17-.37-.3s-.13-.3-.13-.5v-3.08h.87Z"/>
          <path class="cls-6" d="M42.49,112.21c-.07-.04-.13-.09-.17-.16s-.06-.14-.06-.22.02-.15.06-.22c.04-.07.1-.12.17-.16s.15-.06.24-.06.17.02.24.06.13.09.17.16c.04.07.06.14.06.22s-.02.15-.06.22-.1.12-.17.16-.15.06-.24.06-.17-.02-.24-.06ZM42.29,112.69h.87v3.18h-.87v-3.18Z"/>
          <path class="cls-6" d="M45.53,113.34h-1.95v-.65h1.95v.65ZM44.16,111.89c.08-.15.21-.27.36-.34.16-.08.34-.12.55-.12.1,0,.19,0,.28.01s.17.02.24.04v.66c-.12-.01-.21-.02-.27-.02-.14,0-.25.03-.32.09s-.11.15-.11.28v3.38h-.87v-3.42c0-.22.04-.41.13-.56Z"/>
        </g>
        <g>
          <path class="cls-6" d="M18.84,123.81h-1.36v1.88h-.31v-2.14h1.67v.26ZM18.39,125.57c.25-.02.5-.05.75-.09l.03.26c-.26.04-.51.08-.76.09s-.57.03-.95.03h-.28v-.27h.28c.37,0,.68,0,.93-.02ZM19.84,126.73h-.31v-3.51h.31v3.51Z"/>
          <path class="cls-6" d="M21.43,125c-.09.24-.21.45-.36.63s-.32.32-.5.41l-.19-.24c.17-.08.32-.2.47-.37s.26-.35.35-.55.13-.4.13-.6v-.58h.24v.58c0,.24-.05.47-.14.71ZM22.41,123.83h-1.91v-.26h1.91v.26ZM21.74,124.85c.08.19.19.36.33.51s.29.27.46.35l-.18.24c-.18-.09-.35-.22-.5-.4s-.27-.37-.35-.6-.13-.45-.13-.67v-.58h.25v.58c0,.18.04.37.12.56ZM23.15,126.72h-.31v-3.51h.31v3.51ZM23.74,124.9h-.66v-.26h.66v.26Z"/>
          <path class="cls-6" d="M25.4,123.57c.14.07.25.17.33.31s.12.28.12.45-.04.32-.12.45-.19.23-.33.31-.3.11-.47.11-.33-.04-.47-.11-.25-.18-.33-.31-.12-.28-.12-.45.04-.31.12-.45.19-.23.33-.31.3-.11.47-.11.33.04.47.11ZM24.61,123.81c-.09.05-.17.12-.22.21s-.08.19-.08.3.03.21.08.31.13.16.22.21.2.07.32.07.22-.02.31-.07.17-.12.22-.21.08-.19.08-.31-.03-.21-.08-.3-.13-.16-.22-.21-.2-.07-.31-.07-.22.02-.32.07ZM24.87,126.47h-.31v-.95h.31v.95ZM26.93,126.65h-2.37v-.26h2.37v.26ZM26.82,125.78h-.31v-2.56h.31v2.56Z"/>
          <path class="cls-6" d="M31.64,126.27h-3.21v-.26h3.21v.26ZM31.24,125.15h-2.43v-1.64h2.43v1.64ZM29.11,124.91h1.83v-1.15h-1.83v1.15ZM30.18,126.09h-.3v-.99h.3v.99Z"/>
          <path class="cls-6" d="M33.85,123.79h-1.4v1.91h-.31v-2.17h1.71v.26ZM33.33,125.59c.25-.02.51-.05.77-.09l.03.26c-.26.04-.52.07-.77.09s-.56.02-.93.03h-.28v-.26h.28c.35,0,.65,0,.9-.03ZM33.73,124.77h-1.35v-.25h1.35v.25ZM34.82,126.72h-.31v-3.51h.31v3.51Z"/>
          <path class="cls-6" d="M38.62,126.27h-3.21v-.26h3.21v.26ZM38.31,123.83h-2.62v-.26h2.62v.26ZM38.31,125.3h-2.6v-.25h2.6v.25ZM36.56,125.08h-.31v-1.28h.31v1.28ZM37.76,125.08h-.3v-1.28h.3v1.28Z"/>
        </g>
      </g>
      <rect class="cls-4" x="93.32" y=".13" width="64.23" height="16.06" rx="8.03" ry="8.03"/>
      <circle class="cls-6" cx="27.9" cy="103.33" r=".89"/>
      <circle class="cls-1" cx="27.9" cy="116.76" r="27.8"/>
      <circle class="cls-6" cx="125.44" cy="103.33" r=".89"/>
      <circle class="cls-1" cx="125.44" cy="116.76" r="27.8"/>
      <circle class="cls-6" cx="224.6" cy="103.33" r=".89"/>
      <circle class="cls-1" cx="224.6" cy="116.76" r="27.8"/>
      <g>
        <g>
          <line class="cls-5" x1="125.44" y1="16.19" x2="125.44" y2="16.59"/>
          <line class="cls-2" x1="125.44" y1="17.39" x2="125.44" y2="102.53"/>
          <line class="cls-5" x1="125.44" y1="102.93" x2="125.44" y2="103.33"/>
        </g>
        <path class="cls-3" d="M27.9,103.33v-31.38c0-6.74,5.74-12.19,12.83-12.19h171.04c7.09,0,12.83,5.46,12.83,12.19v31.38"/>
      </g>
    </g>
  </g>
</svg>