<?xml version="1.0" encoding="UTF-8"?>
<svg id="_레이어_2" data-name="레이어_2" xmlns="http://www.w3.org/2000/svg" viewBox="0 0 252.5 144.66">
  <defs>
    <style>
      .cls-1 {
        stroke-width: .2px;
      }

      .cls-1, .cls-2, .cls-3, .cls-4, .cls-5 {
        fill: none;
        stroke-miterlimit: 10;
      }

      .cls-1, .cls-4 {
        stroke: #eef6fc;
      }

      .cls-2 {
        stroke-dasharray: .81 .81;
      }

      .cls-2, .cls-3, .cls-5 {
        stroke: #d0d7dc;
        stroke-width: .3px;
      }

      .cls-3 {
        stroke-dasharray: .8;
      }

      .cls-4 {
        stroke-width: .26px;
      }

      .cls-6 {
        fill: #eef6fc;
      }
    </style>
  </defs>
  <g id="_레이어_1-2" data-name="레이어_1">
    <g>
      <g>
        <rect class="cls-4" x="93.32" y=".13" width="64.23" height="16.06" rx="8.03" ry="8.03"/>
        <g>
          <path class="cls-6" d="M104.12,5.51h1.44c.32,0,.59.06.81.18s.38.28.48.48.16.43.16.69-.05.49-.16.69-.27.36-.48.48-.48.18-.8.18h-1.03v-.47h1.01c.22,0,.4-.04.54-.11s.24-.18.31-.31.1-.29.1-.46-.03-.33-.1-.46-.17-.23-.31-.31-.32-.11-.54-.11h-.89v3.77h-.53v-4.24Z"/>
          <path class="cls-6" d="M107.69,6.57h.49v.49h.04c.06-.16.16-.29.31-.39s.32-.15.51-.15c.1,0,.19,0,.26.01v.51s-.06-.02-.12-.02-.12-.01-.18-.01c-.15,0-.28.03-.4.1s-.22.15-.29.27-.11.24-.11.38v2h-.5v-3.18Z"/>
          <path class="cls-6" d="M110.22,9.61c-.22-.14-.39-.33-.51-.58s-.18-.53-.18-.86.06-.62.18-.86.29-.44.51-.58.47-.21.76-.21.54.07.76.21.39.33.51.58.18.54.18.86-.06.61-.18.86-.29.44-.51.58-.47.21-.76.21-.54-.07-.76-.21ZM111.5,9.2c.14-.11.25-.25.31-.43s.1-.38.1-.6-.03-.42-.1-.6-.17-.33-.31-.44-.31-.16-.52-.16-.38.05-.52.16-.25.25-.32.44-.11.38-.11.6.04.42.11.6.18.32.32.43.32.16.52.16.38-.05.52-.16Z"/>
          <path class="cls-6" d="M113.59,6.57v3.41c0,.2-.03.37-.1.52s-.17.26-.31.33-.31.12-.51.12h-.11v-.47h.1c.1,0,.18-.02.24-.06s.11-.1.14-.17.05-.16.05-.27v-3.41h.5ZM113.16,6c-.05-.03-.1-.07-.13-.12s-.05-.11-.05-.17c0-.06.02-.12.05-.17s.07-.09.13-.12.11-.04.18-.04c.07,0,.13.01.18.04s.1.07.13.12.05.11.05.17c0,.06-.02.11-.05.17s-.07.09-.13.12-.12.04-.18.04c-.06,0-.12-.01-.18-.04Z"/>
          <path class="cls-6" d="M114.94,9.61c-.22-.13-.4-.33-.52-.57s-.18-.53-.18-.86.06-.61.18-.86.29-.45.51-.59.47-.21.75-.21c.24,0,.47.05.67.16s.38.28.5.52.19.54.19.91v.21h-2.46v-.43h1.95c0-.18-.04-.34-.11-.48s-.17-.25-.3-.33-.28-.12-.45-.12c-.19,0-.35.05-.49.14s-.25.21-.33.37-.12.32-.12.5v.29c0,.23.04.43.12.6s.2.29.35.38.32.13.52.13c.12,0,.23-.02.33-.05s.18-.08.25-.13.12-.11.16-.18h.54c-.05.16-.13.3-.25.42s-.26.22-.44.28-.37.1-.59.1c-.3,0-.56-.07-.79-.2Z"/>
          <path class="cls-6" d="M118.24,9.6c-.22-.14-.39-.33-.51-.58s-.18-.53-.18-.85.06-.61.18-.86.29-.44.51-.58.47-.21.75-.21c.23,0,.43.04.61.12s.33.2.44.35.18.33.21.53h-.5c-.02-.1-.07-.19-.13-.28s-.15-.15-.25-.2-.22-.08-.36-.08c-.19,0-.35.05-.5.15s-.25.24-.33.41-.12.39-.12.62.04.45.12.64.19.32.33.42.31.15.5.15c.12,0,.24-.02.34-.06s.19-.11.26-.19.12-.18.15-.3h.5c-.03.19-.1.36-.21.51s-.25.27-.43.36-.38.13-.62.13c-.29,0-.55-.07-.77-.21Z"/>
          <path class="cls-6" d="M122.27,6.99h-1.66v-.42h1.66v.42ZM121.6,5.81v3.03c0,.13.02.23.06.3s.09.12.15.14.13.04.21.04c.1,0,.2,0,.3-.01v.47c-.1.02-.22.02-.35.02-.15,0-.29-.03-.42-.09s-.24-.16-.33-.28-.13-.28-.13-.45v-3.16h.51Z"/>
          <path class="cls-6" d="M126,5.51h1.44c.32,0,.59.06.81.18s.38.28.48.48.16.43.16.69-.05.49-.16.69-.27.36-.48.48-.48.18-.8.18h-1.03v-.47h1.01c.22,0,.4-.04.54-.11s.24-.18.31-.31.1-.29.1-.46-.03-.33-.1-.46-.17-.23-.31-.31-.32-.11-.54-.11h-.89v3.77h-.53v-4.24Z"/>
          <path class="cls-6" d="M129.56,6.57h.49v.49h.04c.06-.16.16-.29.31-.39s.32-.15.51-.15c.1,0,.19,0,.26.01v.51s-.06-.02-.12-.02-.12-.01-.18-.01c-.15,0-.28.03-.4.1s-.22.15-.29.27-.11.24-.11.38v2h-.5v-3.18Z"/>
          <path class="cls-6" d="M132.1,9.61c-.22-.14-.39-.33-.51-.58s-.18-.53-.18-.86.06-.62.18-.86.29-.44.51-.58.47-.21.76-.21.54.07.76.21.39.33.51.58.18.54.18.86-.06.61-.18.86-.29.44-.51.58-.47.21-.76.21-.54-.07-.76-.21ZM133.38,9.2c.14-.11.25-.25.31-.43s.1-.38.1-.6-.03-.42-.1-.6-.17-.33-.31-.44-.31-.16-.52-.16-.38.05-.52.16-.25.25-.32.44-.11.38-.11.6.04.42.11.6.18.32.32.43.32.16.52.16.38-.05.52-.16Z"/>
          <path class="cls-6" d="M135.49,9.6c-.22-.14-.39-.33-.51-.58s-.18-.53-.18-.85.06-.61.18-.86.29-.44.51-.58.47-.21.75-.21c.23,0,.43.04.61.12s.33.2.44.35.18.33.21.53h-.5c-.02-.1-.07-.19-.13-.28s-.15-.15-.25-.2-.22-.08-.36-.08c-.19,0-.35.05-.5.15s-.25.24-.33.41-.12.39-.12.62.04.45.12.64.19.32.33.42.31.15.5.15c.12,0,.24-.02.34-.06s.19-.11.26-.19.12-.18.15-.3h.5c-.03.19-.1.36-.21.51s-.25.27-.43.36-.38.13-.62.13c-.29,0-.55-.07-.77-.21Z"/>
          <path class="cls-6" d="M138.68,9.61c-.22-.13-.4-.33-.52-.57s-.18-.53-.18-.86.06-.61.18-.86.29-.45.51-.59.47-.21.75-.21c.24,0,.47.05.67.16s.38.28.5.52.19.54.19.91v.21h-2.46v-.43h1.95c0-.18-.04-.34-.11-.48s-.17-.25-.3-.33-.28-.12-.45-.12c-.19,0-.35.05-.49.14s-.25.21-.33.37-.12.32-.12.5v.29c0,.23.04.43.12.6s.2.29.35.38.32.13.52.13c.12,0,.23-.02.33-.05s.18-.08.25-.13.12-.11.16-.18h.54c-.05.16-.13.3-.25.42s-.26.22-.44.28-.37.1-.59.1c-.3,0-.56-.07-.79-.2Z"/>
          <path class="cls-6" d="M143.01,7.07c-.11-.08-.25-.11-.43-.11-.13,0-.24.02-.35.06s-.18.1-.24.17-.09.16-.09.25c0,.11.04.2.13.27s.23.13.41.18l.47.12c.29.07.5.17.64.31s.21.33.21.55c0,.18-.05.35-.15.49s-.24.26-.43.34-.41.12-.67.12c-.24,0-.44-.03-.62-.1s-.31-.17-.41-.3-.17-.3-.2-.49h.53c.03.15.1.27.22.34s.27.11.47.11c.15,0,.28-.02.39-.06s.2-.1.26-.17.09-.16.09-.26c0-.11-.04-.21-.13-.28s-.22-.13-.4-.17l-.48-.11c-.28-.07-.49-.17-.63-.32s-.22-.33-.22-.54c0-.18.05-.34.15-.48s.24-.25.42-.33.38-.12.61-.12c.21,0,.4.04.57.11s.29.17.39.3.16.28.18.45h-.49c-.04-.14-.11-.25-.21-.33Z"/>
          <path class="cls-6" d="M145.99,7.07c-.11-.08-.25-.11-.43-.11-.13,0-.24.02-.35.06s-.18.1-.24.17-.09.16-.09.25c0,.11.04.2.13.27s.23.13.41.18l.47.12c.29.07.5.17.64.31s.21.33.21.55c0,.18-.05.35-.15.49s-.24.26-.43.34-.41.12-.67.12c-.24,0-.44-.03-.62-.1s-.31-.17-.41-.3-.17-.3-.2-.49h.53c.03.15.1.27.22.34s.27.11.47.11c.15,0,.28-.02.39-.06s.2-.1.26-.17.09-.16.09-.26c0-.11-.04-.21-.13-.28s-.22-.13-.4-.17l-.48-.11c-.28-.07-.49-.17-.63-.32s-.22-.33-.22-.54c0-.18.05-.34.15-.48s.24-.25.42-.33.38-.12.61-.12c.21,0,.4.04.57.11s.29.17.39.3.16.28.18.45h-.49c-.04-.14-.11-.25-.21-.33Z"/>
        </g>
      </g>
      <g>
        <path class="cls-6" d="M11.25,111.29h1.69c.3,0,.56.04.77.14.21.09.37.22.48.38s.16.35.16.57c0,.16-.03.3-.1.43s-.16.23-.27.31c-.11.08-.25.14-.4.17v.04c.16,0,.31.05.46.14s.26.21.34.36.13.33.13.53c0,.23-.06.43-.17.6s-.28.31-.5.42-.48.15-.8.15h-1.8v-4.24ZM13.14,113c.1-.04.18-.11.23-.19s.08-.18.08-.29c0-.11-.02-.2-.07-.27s-.12-.14-.22-.18c-.09-.04-.21-.06-.34-.06h-.69v1.06h.68c.12,0,.23-.02.33-.07ZM13.28,114.75c.11-.04.19-.11.24-.19.05-.08.08-.17.08-.28,0-.12-.03-.22-.08-.32s-.14-.17-.24-.22c-.11-.05-.23-.07-.37-.07h-.76v1.14h.74c.17,0,.3-.02.41-.07Z"/>
        <path class="cls-6" d="M16.5,114.18l-.28.02c-.15.01-.28.05-.36.12-.09.07-.13.17-.13.29,0,.08.02.14.06.2s.1.1.17.13.16.04.25.04c.13,0,.25-.03.35-.08.1-.05.18-.12.24-.21.06-.09.08-.19.08-.3v-1.03c0-.09-.02-.17-.06-.23s-.1-.11-.17-.14c-.08-.03-.17-.05-.27-.05-.15,0-.27.03-.36.09-.09.06-.15.15-.17.26h-.83c.02-.19.09-.36.2-.5.11-.15.27-.27.47-.35s.44-.13.71-.13c.25,0,.47.04.67.11s.37.19.49.36c.12.16.19.36.19.61v2.14h-.82v-.44h-.02c-.05.1-.12.19-.21.26s-.19.13-.31.17c-.12.04-.26.06-.42.06-.21,0-.39-.04-.54-.11s-.28-.18-.38-.32-.14-.31-.14-.52c0-.33.11-.57.33-.72s.5-.24.85-.26c.06,0,.24-.02.54-.03h.29s0,.52,0,.52c-.08,0-.22,0-.41.02Z"/>
        <path class="cls-6" d="M18.98,115.39c-.24-.14-.42-.33-.54-.58s-.19-.53-.19-.85.06-.61.19-.86.31-.44.54-.58c.23-.14.51-.21.83-.21.27,0,.52.05.73.15s.38.24.5.42.19.4.2.64h-.82c-.02-.11-.05-.2-.1-.28s-.12-.14-.2-.19c-.08-.04-.18-.07-.28-.07-.14,0-.26.04-.36.11s-.18.18-.24.33-.09.31-.09.52.03.38.09.52c.06.14.14.25.24.33s.23.11.37.11c.1,0,.2-.02.28-.06s.15-.1.2-.18.09-.18.1-.29h.82c-.01.24-.08.45-.2.64s-.28.33-.49.43c-.21.1-.45.15-.73.15-.32,0-.6-.07-.83-.21Z"/>
        <path class="cls-6" d="M21.77,111.29h.87v4.24h-.87v-4.24ZM22.55,113.57h.13l1.03-1.21h1l-1.38,1.6h-.2l-.58.66v-1.04ZM22.81,114.14l.58-.62,1.39,2.01h-1.02l-.95-1.39Z"/>
        <path class="cls-6" d="M25.66,116.67c-.22-.08-.38-.2-.51-.35s-.19-.33-.21-.53h.85c.03.12.1.22.21.28s.25.09.43.09c.21,0,.38-.05.5-.15.12-.1.18-.25.18-.46v-.59h-.04c-.05.1-.11.19-.18.26-.08.08-.17.14-.3.19s-.27.07-.43.07c-.24,0-.46-.06-.66-.18s-.35-.29-.46-.53-.17-.52-.17-.86.06-.64.17-.88.27-.42.46-.54.41-.18.65-.18c.17,0,.31.03.43.08.12.05.22.12.28.2s.13.17.19.29h.04v-.53h.86v3.22c0,.26-.07.48-.2.67-.13.18-.31.32-.54.42-.23.09-.5.14-.81.14-.29,0-.54-.04-.75-.12ZM26.79,114.73c.1-.07.18-.18.23-.31s.08-.3.08-.48-.03-.35-.08-.49-.13-.25-.23-.32-.22-.11-.37-.11-.27.04-.37.12-.18.19-.23.32c-.05.14-.08.3-.08.49s.03.34.08.48.13.24.23.31.22.11.37.11.27-.04.37-.11Z"/>
        <path class="cls-6" d="M28.64,112.35h.84v.55h.04c.06-.2.15-.34.29-.45.14-.1.29-.15.47-.15.09,0,.19,0,.28.03v.77s-.09-.03-.17-.03c-.07,0-.14-.01-.21-.01-.13,0-.24.03-.35.08-.1.05-.18.13-.24.23s-.09.22-.09.35v1.81h-.87v-3.18Z"/>
        <path class="cls-6" d="M31.48,115.39c-.24-.14-.42-.33-.54-.58s-.19-.53-.19-.86.06-.62.19-.86.31-.44.54-.58.51-.21.83-.21.59.07.83.21.42.33.54.58.19.53.19.86-.06.61-.19.86-.31.44-.54.58-.51.21-.83.21-.59-.07-.83-.21ZM32.68,114.8c.1-.08.18-.2.23-.35s.08-.32.08-.5-.03-.36-.08-.5-.13-.26-.23-.35-.22-.13-.37-.13-.27.04-.38.13-.18.2-.23.34-.08.31-.08.5.03.36.08.5.13.26.23.35.23.13.38.13.27-.04.37-.13Z"/>
        <path class="cls-6" d="M36.45,112.35h.86v3.18h-.83v-.57h-.04c-.08.19-.2.34-.36.45-.17.11-.37.17-.6.17-.21,0-.4-.05-.56-.14-.16-.1-.29-.24-.38-.42s-.14-.39-.14-.64v-2.02h.87v1.88c0,.12.02.23.07.32s.11.16.19.21c.08.05.18.08.29.08s.21-.03.31-.08.17-.13.23-.23.08-.22.08-.36v-1.83Z"/>
        <path class="cls-6" d="M38.86,115.53h-.87v-3.18h.83v.56h.04c.07-.19.19-.33.36-.44s.36-.16.6-.16c.22,0,.41.05.58.14s.29.23.38.41.14.39.14.64v2.03h-.87v-1.88c0-.13-.02-.24-.07-.33s-.11-.16-.19-.21c-.09-.05-.19-.07-.31-.07s-.23.03-.32.08-.16.13-.21.22c-.05.1-.08.22-.08.36v1.84Z"/>
        <path class="cls-6" d="M42.09,115.39c-.2-.13-.35-.31-.46-.56s-.17-.54-.17-.89.06-.65.17-.9.27-.43.46-.55.41-.18.65-.18c.17,0,.31.03.43.08.12.05.22.12.29.21s.13.18.18.28h.03v-1.59h.87v4.24h-.85v-.51h-.04c-.05.11-.11.2-.19.28s-.17.14-.29.2-.26.08-.43.08c-.24,0-.46-.06-.66-.19ZM43.39,114.78c.1-.08.18-.19.23-.33s.08-.31.08-.5-.03-.36-.08-.5-.13-.25-.23-.32c-.1-.07-.23-.11-.37-.11s-.27.04-.37.12-.18.19-.23.33-.08.3-.08.49.03.35.08.5c.05.14.13.26.23.34s.22.12.37.12.27-.04.37-.12Z"/>
      </g>
      <path class="cls-6" d="M13.23,124.21h.99v-.63h.31v1.79h-1.61v-1.79h.31v.63ZM14.22,125.11v-.65h-.99v.65h.99ZM13.7,126.68h-.32v-.97h.32v.97ZM15.77,126.82h-2.38v-.26h2.38v.26ZM15.49,124.26h-1.04v-.26h1.04v.26ZM15.5,125.02h-1.05v-.26h1.05v.26ZM15.69,125.98h-.32v-2.64h.32v2.64Z"/>
      <path class="cls-6" d="M17.47,125.93c.37-.01.72-.04,1.05-.09l.02.24c-.24.04-.49.07-.75.09s-.51.03-.74.04-.49.01-.76.01l-.05-.27c.45,0,.86,0,1.23-.02ZM18.45,124.03h-2.15v-.26h2.15v.26ZM17.82,124.32c.13.05.23.13.3.23s.11.22.11.35-.04.25-.11.34-.17.17-.3.23-.27.08-.44.08-.31-.03-.44-.08-.23-.13-.3-.23-.1-.21-.1-.34.03-.25.1-.35.17-.18.3-.23.28-.08.44-.08.31.03.44.08ZM17.1,124.53c-.08.03-.15.08-.19.15s-.07.14-.07.22.02.15.07.21.11.11.19.14.18.05.29.05.2-.02.28-.05.15-.08.19-.14.07-.13.07-.21-.02-.16-.07-.22-.11-.11-.19-.15-.18-.05-.28-.05-.2.02-.28.05ZM17.54,123.94h-.32v-.59h.32v.59ZM17.54,126.04h-.32v-.58h.32v.58ZM19.05,126.9h-.32v-3.56h.32v3.56ZM19.62,125.12h-.67v-.26h.67v.26Z"/>
      <path class="cls-6" d="M21.08,125.26c.39-.01.74-.04,1.08-.08l.02.23c-.35.05-.72.08-1.11.1s-.78.03-1.18.03l-.05-.26c.44,0,.85-.01,1.23-.03ZM21.87,123.83h-1.39v.79h-.32v-1.05h1.7v.26ZM21.9,124.76h-1.73v-.26h1.73v.26ZM20.77,126.67h-.31v-.85h.31v.85ZM22.88,126.82h-2.43v-.26h2.43v.26ZM21.18,125.37h-.31v-.71h.31v.71ZM22.77,126h-.32v-2.66h.32v2.66Z"/>
      <path class="cls-6" d="M25.82,123.77c.13.1.24.25.31.43s.11.4.11.65-.04.47-.11.65-.18.33-.31.43-.29.15-.46.15-.33-.05-.46-.15-.24-.25-.32-.43-.11-.4-.11-.65.04-.47.11-.65.18-.33.32-.43.29-.15.46-.15.33.05.46.15ZM25.05,124.01c-.09.08-.16.19-.21.34s-.07.31-.07.5.02.36.07.5.12.26.21.34.19.12.31.12.22-.04.31-.12.16-.19.21-.34.07-.31.07-.5-.02-.36-.07-.5-.12-.26-.21-.34-.19-.12-.31-.12-.22.04-.31.12ZM27.12,124.4h-1.1v-.26h1.1v.26ZM27.12,125.52h-1.1v-.26h1.1v.26ZM27.36,126.9h-.31v-3.57h.31v3.57Z"/>
      <path class="cls-6" d="M29.76,124.02h-1.83v-.25h1.83v.25ZM29.25,124.28c.12.05.21.12.27.21s.1.2.1.32-.03.23-.1.32-.15.16-.27.21-.25.08-.4.08-.28-.03-.39-.08-.21-.12-.27-.21-.1-.2-.1-.32.03-.23.1-.32.15-.16.27-.21.25-.07.4-.07.28.02.4.07ZM28.6,124.49c-.07.03-.13.07-.17.13s-.06.12-.06.2.02.14.06.19.1.1.17.13.15.05.25.05.18-.02.25-.05.13-.07.17-.13.06-.12.06-.19-.02-.14-.06-.2-.1-.1-.17-.13-.16-.05-.25-.05-.18.02-.25.05ZM30.44,125.72c.18.05.32.12.41.21s.14.21.14.34-.05.24-.14.33-.23.16-.41.21-.39.07-.64.07-.46-.02-.64-.07-.32-.12-.41-.21-.14-.2-.14-.33.05-.25.14-.34.23-.16.41-.21.39-.07.64-.07.47.02.65.07ZM29,123.91h-.31v-.54h.31v.54ZM29.32,125.94c-.13.03-.23.07-.3.13s-.1.13-.1.21.03.14.1.2.17.1.3.13.29.04.47.04.34-.01.47-.04.23-.07.3-.13.11-.12.11-.2c0-.08-.04-.15-.11-.21s-.17-.1-.3-.13-.29-.04-.47-.04c-.18,0-.34.01-.47.04ZM30.2,125.46h-.3v-2.06h.3v2.06ZM30.76,124.57h-.69v-.26h.69v.26ZM30.98,125.59h-.3v-2.26h.3v2.26Z"/>
      <circle class="cls-6" cx="27.9" cy="103.33" r=".89"/>
      <circle class="cls-1" cx="27.9" cy="116.76" r="27.8"/>
      <g>
        <g>
          <path class="cls-6" d="M112.09,111.41h3.47v.73h-1.3v3.52h-.87v-3.52h-1.3v-.73Z"/>
          <path class="cls-6" d="M115.77,112.47h.84v.55h.04c.06-.2.15-.34.29-.45.14-.1.29-.15.47-.15.09,0,.19,0,.28.03v.77s-.09-.03-.17-.03c-.07,0-.14-.01-.21-.01-.13,0-.24.03-.35.08-.1.05-.18.13-.24.23s-.09.22-.09.35v1.81h-.87v-3.18Z"/>
          <path class="cls-6" d="M119.47,114.3l-.28.02c-.15.01-.28.05-.36.12-.09.07-.13.17-.13.29,0,.08.02.14.06.2s.1.1.17.13.16.04.25.04c.13,0,.25-.03.35-.08.1-.05.18-.12.24-.21.06-.09.08-.19.08-.3v-1.03c0-.09-.02-.17-.06-.23s-.1-.11-.17-.14c-.08-.03-.17-.05-.27-.05-.15,0-.27.03-.36.09-.09.06-.15.15-.17.26h-.83c.02-.19.09-.36.2-.5.11-.15.27-.27.47-.35s.44-.13.71-.13c.25,0,.47.04.67.11s.37.19.49.36c.12.16.19.36.19.61v2.14h-.82v-.44h-.02c-.05.1-.12.19-.21.26s-.19.13-.31.17c-.12.04-.26.06-.42.06-.21,0-.39-.04-.54-.11s-.28-.18-.38-.32-.14-.31-.14-.52c0-.33.11-.57.33-.72s.5-.24.85-.26c.06,0,.24-.02.54-.03h.29s0,.52,0,.52c-.08,0-.22,0-.41.02Z"/>
          <path class="cls-6" d="M122.04,116.79c-.22-.08-.38-.2-.51-.35s-.19-.33-.21-.53h.85c.03.12.1.22.21.28s.25.09.43.09c.21,0,.38-.05.5-.15.12-.1.18-.25.18-.46v-.59h-.04c-.05.1-.11.19-.18.26-.08.08-.17.14-.3.19s-.27.07-.43.07c-.24,0-.46-.06-.66-.18s-.35-.29-.46-.53-.17-.52-.17-.86.06-.64.17-.88.27-.42.46-.54.41-.18.65-.18c.17,0,.31.03.43.08.12.05.22.12.28.2s.13.17.19.29h.04v-.53h.86v3.22c0,.26-.07.48-.2.67-.13.18-.31.32-.54.42-.23.09-.5.14-.81.14-.29,0-.54-.04-.75-.12ZM123.17,114.84c.1-.07.18-.18.23-.31s.08-.3.08-.48-.03-.35-.08-.49-.13-.25-.23-.32-.22-.11-.37-.11-.27.04-.37.12-.18.19-.23.32c-.05.14-.08.3-.08.49s.03.34.08.48.13.24.23.31.22.11.37.11.27-.04.37-.11Z"/>
          <path class="cls-6" d="M125.62,115.52c-.24-.13-.42-.32-.55-.57s-.19-.54-.19-.87.06-.62.19-.87c.13-.25.31-.44.54-.58s.5-.21.81-.21c.29,0,.54.06.77.18.22.12.4.3.53.54s.19.54.19.89v.24h-2.68v-.54h1.86c0-.13-.03-.24-.08-.34s-.13-.18-.23-.24-.21-.08-.34-.08c-.13,0-.25.03-.36.09-.11.06-.19.15-.25.25s-.09.22-.09.35v.51c0,.16.03.3.09.42s.15.21.26.27.24.09.39.09c.1,0,.19-.01.27-.04.08-.03.15-.06.2-.11.06-.04.1-.1.13-.16h.83c-.04.19-.13.36-.25.51-.13.15-.29.26-.5.34-.2.08-.43.12-.69.12-.32,0-.6-.07-.84-.2Z"/>
          <path class="cls-6" d="M130.14,113.12h-1.9v-.65h1.9v.65ZM129.54,111.71v2.96c0,.08.01.15.04.19.02.05.06.08.1.1s.1.03.16.03c.08,0,.2,0,.34-.01v.69c-.13.02-.28.03-.45.03-.21,0-.4-.03-.56-.1-.16-.06-.28-.17-.37-.3s-.13-.3-.13-.5v-3.08h.87Z"/>
          <path class="cls-6" d="M130.88,111.99c-.07-.04-.13-.09-.17-.16s-.06-.14-.06-.22.02-.15.06-.22c.04-.07.1-.12.17-.16s.15-.06.24-.06.17.02.24.06.13.09.17.16c.04.07.06.14.06.22s-.02.15-.06.22-.1.12-.17.16-.15.06-.24.06-.17-.02-.24-.06ZM130.68,112.47h.87v3.18h-.87v-3.18Z"/>
          <path class="cls-6" d="M133.09,115.65h-.87v-3.18h.83v.56h.04c.07-.19.19-.33.36-.44s.36-.16.6-.16c.22,0,.41.05.58.14s.29.23.38.41.14.39.14.64v2.03h-.87v-1.88c0-.13-.02-.24-.07-.33s-.11-.16-.2-.21c-.09-.05-.19-.07-.31-.07s-.23.03-.32.08-.16.13-.21.22c-.05.1-.08.22-.08.36v1.84Z"/>
          <path class="cls-6" d="M136.48,116.79c-.22-.08-.38-.2-.51-.35s-.19-.33-.21-.53h.85c.03.12.1.22.21.28s.25.09.43.09c.21,0,.38-.05.5-.15.12-.1.18-.25.18-.46v-.59h-.04c-.05.1-.11.19-.18.26-.08.08-.17.14-.3.19s-.27.07-.43.07c-.24,0-.46-.06-.66-.18s-.35-.29-.46-.53-.17-.52-.17-.86.06-.64.17-.88.27-.42.46-.54.41-.18.65-.18c.17,0,.31.03.43.08.12.05.22.12.28.2s.13.17.19.29h.04v-.53h.86v3.22c0,.26-.07.48-.2.67-.13.18-.31.32-.54.42-.23.09-.5.14-.81.14-.29,0-.54-.04-.75-.12ZM137.62,114.84c.1-.07.18-.18.23-.31s.08-.3.08-.48-.03-.35-.08-.49-.13-.25-.23-.32-.22-.11-.37-.11-.27.04-.37.12-.18.19-.23.32c-.05.14-.08.3-.08.49s.03.34.08.48.13.24.23.31.22.11.37.11.27-.04.37-.11Z"/>
        </g>
        <g>
          <path class="cls-6" d="M119.45,125.63h-3.25v-.26h3.25v.26ZM117.73,124.4c-.13.17-.31.31-.52.43s-.44.19-.69.23l-.12-.25c.21-.03.41-.1.6-.19s.35-.21.47-.35.18-.28.18-.43v-.15h.28v.15c0,.2-.07.39-.2.56ZM119.14,123.82h-2.63v-.26h2.63v.26ZM117.98,126.9h-.31v-1.36h.31v1.36ZM118.19,124.28c.12.14.28.25.47.35s.39.16.6.19l-.12.25c-.25-.04-.48-.12-.69-.23s-.39-.25-.52-.43-.2-.36-.2-.56v-.15h.27v.15c0,.15.06.3.18.43Z"/>
          <path class="cls-6" d="M124.04,126.44h-3.26v-.26h3.26v.26ZM122.3,124.53c-.14.21-.32.38-.54.52s-.46.24-.7.29l-.14-.26c.21-.04.42-.12.62-.24s.37-.27.5-.44.19-.36.19-.55v-.27h.28v.27c0,.24-.07.47-.21.68ZM122.55,126.26h-.31v-.96h.31v.96ZM122.76,124.4c.13.17.3.32.5.44s.41.2.62.24l-.14.26c-.24-.05-.48-.15-.7-.29s-.4-.31-.54-.52-.21-.43-.21-.68v-.27h.27v.27c0,.19.07.37.2.55Z"/>
          <path class="cls-6" d="M124.85,124.59h1.06v-.94h.31v2.4h-1.68v-2.4h.31v.94ZM125.91,125.78v-.95h-1.06v.95h1.06ZM127.27,126.91h-.32v-3.57h.32v3.57Z"/>
          <path class="cls-6" d="M128.88,125.15c-.09.24-.22.45-.37.64s-.32.33-.5.42l-.19-.25c.17-.08.33-.21.47-.37s.26-.35.35-.56.13-.41.13-.6v-.59h.25v.59c0,.24-.05.48-.14.72ZM129.88,123.97h-1.94v-.26h1.94v.26ZM129.2,125c.08.19.19.37.33.52s.3.27.47.35l-.18.25c-.18-.09-.35-.23-.5-.4s-.27-.38-.36-.61-.13-.46-.13-.69v-.59h.25v.59c0,.19.04.38.12.57ZM130.63,126.9h-.31v-3.56h.31v3.56ZM131.23,125.05h-.67v-.27h.67v.27Z"/>
          <path class="cls-6" d="M134.66,125.41h-3.25v-.26h3.25v.26ZM132.95,124.4c-.13.14-.3.26-.52.34s-.46.14-.73.17l-.1-.24c.23-.02.44-.07.64-.14s.34-.16.46-.26.17-.23.17-.36v-.06h.28v.06c0,.19-.06.35-.19.49ZM134.34,123.94h-2.58v-.26h2.58v.26ZM133.7,125.78c.18.05.32.11.42.2s.15.19.15.32-.05.23-.14.32-.24.15-.42.2-.4.07-.66.07-.48-.02-.66-.07-.33-.11-.42-.2-.15-.19-.15-.32.05-.23.15-.32.24-.15.42-.2.4-.07.66-.07.48.02.66.07ZM132.55,125.99c-.14.03-.24.07-.31.12s-.11.12-.11.19.04.14.11.19.17.09.31.12.3.04.49.04.35-.01.49-.04.24-.07.31-.12.11-.11.11-.19-.04-.14-.11-.19-.18-.09-.31-.12-.3-.04-.49-.04-.35.01-.49.04ZM133.19,123.83h-.31v-.5h.31v.5ZM133.38,124.27c.11.11.26.19.45.26s.4.11.63.14l-.1.24c-.26-.03-.51-.09-.72-.17s-.39-.2-.52-.34-.19-.31-.19-.49v-.06h.28v.06c0,.13.06.25.17.36Z"/>
        </g>
        <circle class="cls-6" cx="125.44" cy="103.33" r=".89"/>
        <circle class="cls-1" cx="125.44" cy="116.76" r="27.8"/>
      </g>
      <g>
        <g>
          <path class="cls-6" d="M214.95,112.24c-.06-.08-.14-.14-.25-.18s-.23-.06-.38-.06-.27.02-.37.06-.18.1-.24.17c-.05.07-.08.16-.08.25,0,.14.06.25.18.33s.29.15.5.2l.38.09c.4.09.71.24.94.44s.33.47.33.81c0,.26-.07.48-.2.67s-.32.34-.57.44-.54.16-.88.16-.64-.05-.89-.16-.45-.26-.59-.47-.21-.46-.22-.76h.86c.01.14.05.26.13.35s.17.17.29.22.26.07.42.07.29-.02.4-.07.2-.11.27-.19c.06-.08.09-.17.09-.28,0-.09-.03-.17-.08-.24-.05-.06-.13-.12-.24-.17s-.24-.09-.4-.13l-.47-.11c-.37-.09-.66-.23-.85-.42s-.3-.43-.3-.74c0-.25.07-.47.21-.67s.33-.34.57-.45.52-.16.82-.16.58.05.82.16.42.26.55.45c.13.19.2.41.2.66h-.85c-.01-.11-.05-.21-.11-.29Z"/>
          <path class="cls-6" d="M218.2,113.03h-1.9v-.65h1.9v.65ZM217.6,111.62v2.96c0,.08.01.15.04.19.02.05.06.08.1.1s.1.03.16.03c.08,0,.2,0,.34-.01v.69c-.13.02-.28.03-.45.03-.21,0-.4-.03-.56-.1-.16-.06-.28-.17-.37-.3s-.13-.3-.13-.5v-3.08h.87Z"/>
          <path class="cls-6" d="M218.74,112.38h.84v.55h.04c.06-.2.15-.34.29-.45.14-.1.29-.15.47-.15.09,0,.19,0,.28.03v.77s-.09-.03-.17-.03c-.07,0-.14-.01-.21-.01-.13,0-.24.03-.35.08-.1.05-.18.13-.24.23s-.09.22-.09.35v1.81h-.87v-3.18Z"/>
          <path class="cls-6" d="M222.45,114.21l-.28.02c-.15.01-.28.05-.36.12-.09.07-.13.17-.13.29,0,.08.02.14.06.2s.1.1.17.13.16.04.25.04c.13,0,.25-.03.35-.08.1-.05.18-.12.24-.21.06-.09.08-.19.08-.3v-1.03c0-.09-.02-.17-.06-.23s-.1-.11-.17-.14c-.08-.03-.17-.05-.27-.05-.15,0-.27.03-.36.09-.09.06-.15.15-.17.26h-.83c.02-.19.09-.36.2-.5.11-.15.27-.27.47-.35s.44-.13.71-.13c.25,0,.47.04.67.11s.37.19.49.36c.12.16.19.36.19.61v2.14h-.82v-.44h-.02c-.05.1-.12.19-.21.26s-.19.13-.31.17c-.12.04-.26.06-.42.06-.21,0-.39-.04-.54-.11s-.28-.18-.38-.32-.14-.31-.14-.52c0-.33.11-.57.33-.72s.5-.24.85-.26c.06,0,.24-.02.54-.03h.29s0,.52,0,.52c-.08,0-.22,0-.41.02Z"/>
          <path class="cls-6" d="M226.02,113.03h-1.9v-.65h1.9v.65ZM225.42,111.62v2.96c0,.08.01.15.04.19.02.05.06.08.1.1s.1.03.16.03c.08,0,.2,0,.34-.01v.69c-.13.02-.28.03-.45.03-.21,0-.4-.03-.56-.1-.16-.06-.28-.17-.37-.3s-.13-.3-.13-.5v-3.08h.87Z"/>
          <path class="cls-6" d="M227.14,115.43c-.24-.13-.42-.32-.55-.57s-.19-.54-.19-.87.06-.62.19-.87c.13-.25.31-.44.54-.58s.5-.21.81-.21c.29,0,.54.06.77.18.22.12.4.3.53.54s.19.54.19.89v.24h-2.68v-.54h1.86c0-.13-.03-.24-.08-.34s-.13-.18-.23-.24-.21-.08-.34-.08c-.13,0-.25.03-.36.09-.11.06-.19.15-.25.25s-.09.22-.09.35v.51c0,.16.03.3.09.42s.15.21.26.27.24.09.38.09c.1,0,.19-.01.27-.04.08-.03.15-.06.2-.11.06-.04.1-.1.13-.16h.83c-.04.19-.12.36-.25.51-.13.15-.29.26-.5.34-.2.08-.43.12-.69.12-.32,0-.6-.07-.84-.2Z"/>
          <path class="cls-6" d="M230.65,116.7c-.22-.08-.38-.2-.51-.35s-.19-.33-.21-.53h.85c.03.12.1.22.21.28s.25.09.43.09c.21,0,.38-.05.5-.15.12-.1.18-.25.18-.46v-.59h-.04c-.05.1-.11.19-.18.26-.08.08-.17.14-.3.19s-.27.07-.43.07c-.24,0-.46-.06-.66-.18s-.35-.29-.46-.53-.17-.52-.17-.86.06-.64.17-.88.27-.42.46-.54.41-.18.65-.18c.17,0,.31.03.43.08.12.05.22.12.28.2s.13.17.19.29h.04v-.53h.86v3.22c0,.26-.07.48-.2.67-.13.18-.31.32-.54.42-.23.09-.5.14-.81.14-.29,0-.54-.04-.75-.12ZM231.78,114.75c.1-.07.18-.18.23-.31s.08-.3.08-.48-.03-.35-.08-.49-.13-.25-.23-.32-.22-.11-.37-.11-.27.04-.37.12-.18.19-.23.32c-.05.14-.08.3-.08.49s.03.34.08.48.13.24.23.31.22.11.37.11.27-.04.37-.11Z"/>
          <path class="cls-6" d="M233.7,116.74v-.68h.15c.06.01.13.01.21.01.07,0,.13,0,.18-.02s.09-.04.13-.08.08-.11.11-.19l.05-.13-1.15-3.27h.91l.67,2.34h.04l.67-2.34h.92l-1.24,3.53c-.1.27-.24.48-.43.63-.19.15-.45.22-.77.22-.17,0-.32,0-.44-.01Z"/>
        </g>
        <g>
          <path class="cls-6" d="M216.87,125.21c-.09.23-.2.43-.35.6s-.32.31-.5.4l-.18-.24c.17-.08.33-.2.47-.35s.25-.33.33-.52.12-.39.12-.59v-.32h.25v.32c0,.24-.04.48-.13.71ZM217.86,124.22h-1.93v-.26h1.93v.26ZM217.06,124.1h-.32v-.7h.32v.7ZM217.16,125.06c.08.18.18.35.32.5s.29.26.46.35l-.18.24c-.18-.09-.35-.22-.49-.39s-.26-.36-.34-.58-.12-.44-.12-.67v-.32h.24v.32c0,.19.04.37.11.56ZM218.62,126.9h-.31v-3.56h.31v3.56ZM219.22,125.07h-.67v-.27h.67v.27Z"/>
          <path class="cls-6" d="M219.9,124.02h.99v-.51h.31v1.55h-1.61v-1.55h.31v.51ZM220.89,124.8v-.53h-.99v.53h.99ZM222.36,126.21h-1.99v.56h-.31v-.8h1.99v-.34h-2v-.25h2.31v.84ZM222.49,126.85h-2.44v-.25h2.44v.25ZM222.13,124.1h-1.03v-.24h1.03v.24ZM222.13,124.75h-1.03v-.25h1.03v.25ZM222.36,125.2h-.31v-1.86h.31v1.86Z"/>
          <path class="cls-6" d="M224.14,125.93c.37-.01.72-.04,1.05-.09l.02.24c-.24.04-.49.07-.75.09s-.51.03-.74.04-.49.01-.76.01l-.05-.27c.45,0,.86,0,1.23-.02ZM225.12,124.03h-2.15v-.26h2.15v.26ZM224.49,124.32c.13.05.23.13.3.23s.11.22.11.35-.04.25-.11.34-.17.17-.3.23-.27.08-.44.08-.31-.03-.44-.08-.23-.13-.3-.23-.1-.21-.1-.34.03-.25.1-.35.17-.18.3-.23.28-.08.44-.08.31.03.44.08ZM223.77,124.54c-.08.03-.15.08-.19.15s-.07.14-.07.22.02.15.07.21.11.11.19.14.18.05.29.05.2-.02.28-.05.15-.08.19-.14.07-.13.07-.21-.02-.16-.07-.22-.11-.11-.19-.15-.18-.05-.28-.05-.2.02-.28.05ZM224.21,123.94h-.32v-.59h.32v.59ZM224.21,126.04h-.32v-.58h.32v.58ZM225.72,126.9h-.32v-3.56h.32v3.56ZM226.29,125.12h-.67v-.26h.67v.26Z"/>
          <path class="cls-6" d="M227.55,124.68c-.08.19-.2.36-.35.5s-.33.25-.52.32l-.16-.26c.17-.06.33-.15.47-.27s.25-.26.32-.41.12-.32.12-.48v-.29h.26v.29c0,.21-.04.41-.13.6ZM228.53,123.89h-1.92v-.26h1.92v.26ZM227.48,126.69h-.32v-.97h.32v.97ZM229.55,126.82h-2.39v-.26h2.39v.26ZM227.85,124.52c.07.14.18.27.31.38s.28.2.45.26l-.16.25c-.19-.07-.36-.17-.51-.31s-.26-.29-.34-.47-.12-.37-.12-.56v-.29h.26v.29c0,.15.04.3.11.44ZM229.32,124.59h-.91v-.26h.91v.26ZM229.45,125.96h-.32v-2.61h.32v2.61Z"/>
          <path class="cls-6" d="M231.81,124.54h-1.3v.65h-.31v-.9h1.3v-.48h-1.31v-.26h1.61v.98ZM231.38,125.03c.25-.02.51-.05.78-.09l.03.26c-.27.05-.53.08-.79.09s-.56.02-.92.02h-.28v-.26h.28c.35,0,.65,0,.9-.02ZM232.83,126.9h-.31v-.95h-2.02v-.26h2.33v1.21ZM232.83,125.51h-.31v-2.16h.31v2.16ZM233.37,124.17h-.64v-.26h.64v.26ZM233.37,124.92h-.64v-.26h.64v.26Z"/>
        </g>
        <circle class="cls-6" cx="224.6" cy="103.33" r=".89"/>
        <circle class="cls-1" cx="224.6" cy="116.76" r="27.8"/>
      </g>
      <g>
        <g>
          <line class="cls-5" x1="125.44" y1="16.19" x2="125.44" y2="16.59"/>
          <line class="cls-2" x1="125.44" y1="17.39" x2="125.44" y2="102.53"/>
          <line class="cls-5" x1="125.44" y1="102.93" x2="125.44" y2="103.33"/>
        </g>
        <path class="cls-3" d="M27.9,103.33v-31.38c0-6.74,5.74-12.19,12.83-12.19h171.04c7.09,0,12.83,5.46,12.83,12.19v31.38"/>
      </g>
      <g>
        <path class="cls-6" d="M35.92,126.34h-3.2v-.26h3.2v.26ZM35.52,123.87h-2.06v1.4h-.31v-1.66h2.38v.26ZM35.55,125.45h-2.42v-.25h2.42v.25ZM35.44,124.63h-2.09v-.25h2.09v.25Z"/>
        <path class="cls-6" d="M37.6,124.59h-.93v.67h-.3v-.91h.94v-.51h-.95v-.25h1.25v1ZM37.28,125.12c.19-.01.39-.04.59-.08l.04.25c-.14.03-.28.05-.42.06s-.27.03-.41.03-.3,0-.49,0h-.22v-.25h.22c.27,0,.5,0,.7-.02ZM37.18,126.62h-.31v-.95h.31v.95ZM39.27,126.72h-2.4v-.26h2.4v.26ZM38.39,124.54h-.64v-.26h.64v.26ZM38.48,125.84h-.29v-2.47h.29v2.47ZM39.17,125.93h-.29v-2.62h.29v2.62Z"/>
        <path class="cls-6" d="M42.88,126.32h-3.2v-.26h3.2v.26ZM42.46,123.89h-2.07v1.21h-.31v-1.47h2.38v.26ZM42.5,125.24h-2.41v-.26h2.41v.26Z"/>
      </g>
    </g>
  </g>
</svg>